<mxfile host="app.diagrams.net" modified="2023-06-11T08:27:24.228Z" agent="Mozilla/5.0 (Windows NT 10.0; Win64; x64) AppleWebKit/537.36 (KHTML, like Gecko) Chrome/114.0.0.0 Safari/537.36" etag="T69IPwZAKpcBIkPs5l7e" version="21.3.8" type="device">
  <diagram name="Page-1" id="0INYDknKefWPbeua-o3F">
    <mxGraphModel dx="2022" dy="668" grid="1" gridSize="10" guides="1" tooltips="1" connect="1" arrows="1" fold="1" page="1" pageScale="1" pageWidth="827" pageHeight="1169" math="0" shadow="0">
      <root>
        <mxCell id="0" />
        <mxCell id="1" parent="0" />
        <mxCell id="Qr_uqlTXjobZSqawFKb_-18" style="edgeStyle=orthogonalEdgeStyle;rounded=0;orthogonalLoop=1;jettySize=auto;html=1;exitX=0.5;exitY=1;exitDx=0;exitDy=0;strokeColor=#FFFFFF;" edge="1" parent="1" source="Qr_uqlTXjobZSqawFKb_-1">
          <mxGeometry relative="1" as="geometry">
            <mxPoint x="405" y="190" as="targetPoint" />
          </mxGeometry>
        </mxCell>
        <mxCell id="Qr_uqlTXjobZSqawFKb_-1" value="&lt;font style=&quot;font-size: 25px;&quot; color=&quot;#000000&quot;&gt;INICIO&lt;/font&gt;" style="ellipse;whiteSpace=wrap;html=1;strokeColor=#FF9933;strokeWidth=2;fillColor=#FFB366;" vertex="1" parent="1">
          <mxGeometry x="340" y="80" width="130" height="60" as="geometry" />
        </mxCell>
        <mxCell id="Qr_uqlTXjobZSqawFKb_-23" style="edgeStyle=orthogonalEdgeStyle;rounded=0;orthogonalLoop=1;jettySize=auto;html=1;exitX=0.5;exitY=1;exitDx=0;exitDy=0;" edge="1" parent="1" source="Qr_uqlTXjobZSqawFKb_-4">
          <mxGeometry relative="1" as="geometry">
            <mxPoint x="735" y="430" as="targetPoint" />
          </mxGeometry>
        </mxCell>
        <mxCell id="Qr_uqlTXjobZSqawFKb_-4" value="¿CONTIENE &lt;br&gt;DUPLICADOS?" style="rhombus;whiteSpace=wrap;html=1;fillColor=none;fontColor=#FFFFFF;strokeColor=#99FF33;strokeWidth=2;" vertex="1" parent="1">
          <mxGeometry x="650" y="200" width="170" height="150" as="geometry" />
        </mxCell>
        <mxCell id="Qr_uqlTXjobZSqawFKb_-5" value="¿ORDEN DE INSERCIÓN U ORDEN DE CLAVES?" style="rhombus;whiteSpace=wrap;html=1;fillColor=none;fontColor=#ffffff;strokeColor=#99FF33;strokeWidth=2;" vertex="1" parent="1">
          <mxGeometry x="-10" y="440" width="170" height="150" as="geometry" />
        </mxCell>
        <mxCell id="Qr_uqlTXjobZSqawFKb_-24" style="edgeStyle=orthogonalEdgeStyle;rounded=0;orthogonalLoop=1;jettySize=auto;html=1;exitX=0;exitY=0.5;exitDx=0;exitDy=0;" edge="1" parent="1" source="Qr_uqlTXjobZSqawFKb_-6">
          <mxGeometry relative="1" as="geometry">
            <mxPoint x="590" y="515" as="targetPoint" />
          </mxGeometry>
        </mxCell>
        <mxCell id="Qr_uqlTXjobZSqawFKb_-6" value="¿SU TAREA PRINCIPAL ES BUSCAR ELEMENTOS?&lt;br&gt;(contains/remove)" style="rhombus;whiteSpace=wrap;html=1;fillColor=none;fontColor=#FFFFFF;strokeColor=#99FF33;strokeWidth=2;" vertex="1" parent="1">
          <mxGeometry x="650" y="435" width="170" height="160" as="geometry" />
        </mxCell>
        <mxCell id="Qr_uqlTXjobZSqawFKb_-25" style="edgeStyle=orthogonalEdgeStyle;rounded=0;orthogonalLoop=1;jettySize=auto;html=1;exitX=0.5;exitY=1;exitDx=0;exitDy=0;" edge="1" parent="1" source="Qr_uqlTXjobZSqawFKb_-7">
          <mxGeometry relative="1" as="geometry">
            <mxPoint x="499" y="660" as="targetPoint" />
          </mxGeometry>
        </mxCell>
        <mxCell id="Qr_uqlTXjobZSqawFKb_-7" value="¿EL ORDEN ES IMPORTANTE?" style="rhombus;whiteSpace=wrap;html=1;fillColor=none;fontColor=#FFFFFF;strokeColor=#99FF33;strokeWidth=2;" vertex="1" parent="1">
          <mxGeometry x="414" y="440" width="170" height="150" as="geometry" />
        </mxCell>
        <mxCell id="Qr_uqlTXjobZSqawFKb_-8" value="¿ORDEN DE INSERCIÓN U ORDEN DE ELEMENTO?" style="rhombus;whiteSpace=wrap;html=1;fillColor=none;strokeColor=#99FF33;strokeWidth=2;" vertex="1" parent="1">
          <mxGeometry x="414" y="665" width="170" height="150" as="geometry" />
        </mxCell>
        <mxCell id="Qr_uqlTXjobZSqawFKb_-22" style="edgeStyle=orthogonalEdgeStyle;rounded=0;orthogonalLoop=1;jettySize=auto;html=1;exitX=0.5;exitY=1;exitDx=0;exitDy=0;" edge="1" parent="1" source="Qr_uqlTXjobZSqawFKb_-9">
          <mxGeometry relative="1" as="geometry">
            <mxPoint x="75" y="430" as="targetPoint" />
          </mxGeometry>
        </mxCell>
        <mxCell id="Qr_uqlTXjobZSqawFKb_-9" value="¿EL ORDEN ES IMPORTANTE?" style="rhombus;whiteSpace=wrap;html=1;fillColor=none;fontColor=#ffffff;strokeColor=#99FF33;strokeWidth=2;rounded=0;" vertex="1" parent="1">
          <mxGeometry x="-10" y="200" width="170" height="150" as="geometry" />
        </mxCell>
        <mxCell id="Qr_uqlTXjobZSqawFKb_-19" style="edgeStyle=orthogonalEdgeStyle;rounded=0;orthogonalLoop=1;jettySize=auto;html=1;exitX=0;exitY=0.5;exitDx=0;exitDy=0;" edge="1" parent="1" source="Qr_uqlTXjobZSqawFKb_-10">
          <mxGeometry relative="1" as="geometry">
            <mxPoint x="170" y="275" as="targetPoint" />
          </mxGeometry>
        </mxCell>
        <mxCell id="Qr_uqlTXjobZSqawFKb_-20" style="edgeStyle=orthogonalEdgeStyle;rounded=0;orthogonalLoop=1;jettySize=auto;html=1;exitX=1;exitY=0.5;exitDx=0;exitDy=0;" edge="1" parent="1" source="Qr_uqlTXjobZSqawFKb_-10">
          <mxGeometry relative="1" as="geometry">
            <mxPoint x="640" y="275" as="targetPoint" />
          </mxGeometry>
        </mxCell>
        <mxCell id="Qr_uqlTXjobZSqawFKb_-10" value="¿TIENE PARES DE CLAVE/VALOR O SÓLO VALORES?" style="rhombus;whiteSpace=wrap;html=1;fillColor=none;fontColor=#FFFFFF;strokeColor=#99FF33;strokeWidth=2;" vertex="1" parent="1">
          <mxGeometry x="320" y="200" width="170" height="150" as="geometry" />
        </mxCell>
        <mxCell id="Qr_uqlTXjobZSqawFKb_-11" value="ARRAYLIST" style="rounded=1;whiteSpace=wrap;html=1;strokeColor=#00CCCC;strokeWidth=2;fillColor=none;fontColor=#FFFFFF;" vertex="1" parent="1">
          <mxGeometry x="560" y="360" width="90" height="40" as="geometry" />
        </mxCell>
        <mxCell id="Qr_uqlTXjobZSqawFKb_-12" value="HASHSET" style="rounded=1;whiteSpace=wrap;html=1;strokeColor=#00CCCC;strokeWidth=2;fillColor=none;" vertex="1" parent="1">
          <mxGeometry x="570" y="585" width="90" height="40" as="geometry" />
        </mxCell>
        <mxCell id="Qr_uqlTXjobZSqawFKb_-13" value="TREESET" style="rounded=1;whiteSpace=wrap;html=1;strokeColor=#00CCCC;strokeWidth=2;fillColor=none;" vertex="1" parent="1">
          <mxGeometry x="680" y="720" width="90" height="40" as="geometry" />
        </mxCell>
        <mxCell id="Qr_uqlTXjobZSqawFKb_-14" value="LINKEDHASHSET" style="rounded=1;whiteSpace=wrap;html=1;strokeColor=#00CCCC;strokeWidth=2;fillColor=none;fontColor=#FFFFFF;" vertex="1" parent="1">
          <mxGeometry x="220" y="715" width="110" height="50" as="geometry" />
        </mxCell>
        <mxCell id="Qr_uqlTXjobZSqawFKb_-15" value="LINKEDHASHMAP" style="rounded=1;whiteSpace=wrap;html=1;strokeColor=#00CCCC;strokeWidth=2;fillColor=none;" vertex="1" parent="1">
          <mxGeometry x="130" y="615" width="120" height="50" as="geometry" />
        </mxCell>
        <mxCell id="Qr_uqlTXjobZSqawFKb_-16" value="HASHMAP" style="rounded=1;whiteSpace=wrap;html=1;strokeColor=#00CCCC;strokeWidth=2;fillColor=none;" vertex="1" parent="1">
          <mxGeometry x="140" y="360" width="100" height="40" as="geometry" />
        </mxCell>
        <mxCell id="Qr_uqlTXjobZSqawFKb_-17" value="TREEMAP" style="rounded=1;whiteSpace=wrap;html=1;strokeColor=#00CCCC;strokeWidth=2;fillColor=none;fontColor=#FFFFFF;" vertex="1" parent="1">
          <mxGeometry x="-70" y="620" width="90" height="40" as="geometry" />
        </mxCell>
        <mxCell id="Qr_uqlTXjobZSqawFKb_-26" value="" style="endArrow=classic;html=1;rounded=0;exitX=0;exitY=1;exitDx=0;exitDy=0;" edge="1" parent="1" source="Qr_uqlTXjobZSqawFKb_-4">
          <mxGeometry width="50" height="50" relative="1" as="geometry">
            <mxPoint x="624" y="350" as="sourcePoint" />
            <mxPoint x="630" y="350" as="targetPoint" />
          </mxGeometry>
        </mxCell>
        <mxCell id="Qr_uqlTXjobZSqawFKb_-27" value="" style="endArrow=classic;html=1;rounded=0;exitX=1;exitY=1;exitDx=0;exitDy=0;strokeColor=#4C0099;" edge="1" parent="1" source="Qr_uqlTXjobZSqawFKb_-9">
          <mxGeometry width="50" height="50" relative="1" as="geometry">
            <mxPoint x="130" y="340" as="sourcePoint" />
            <mxPoint x="150" y="350" as="targetPoint" />
          </mxGeometry>
        </mxCell>
        <mxCell id="Qr_uqlTXjobZSqawFKb_-28" value="" style="endArrow=classic;html=1;rounded=0;exitX=1;exitY=1;exitDx=0;exitDy=0;" edge="1" parent="1" source="Qr_uqlTXjobZSqawFKb_-5">
          <mxGeometry width="50" height="50" relative="1" as="geometry">
            <mxPoint x="120" y="566" as="sourcePoint" />
            <mxPoint x="160" y="600" as="targetPoint" />
          </mxGeometry>
        </mxCell>
        <mxCell id="Qr_uqlTXjobZSqawFKb_-29" value="" style="endArrow=classic;html=1;rounded=0;exitX=0;exitY=1;exitDx=0;exitDy=0;strokeColor=#FFFFFF;" edge="1" parent="1">
          <mxGeometry width="50" height="50" relative="1" as="geometry">
            <mxPoint x="414" y="740" as="sourcePoint" />
            <mxPoint x="340" y="740" as="targetPoint" />
          </mxGeometry>
        </mxCell>
        <mxCell id="Qr_uqlTXjobZSqawFKb_-30" value="" style="endArrow=classic;html=1;rounded=0;exitX=1;exitY=0.5;exitDx=0;exitDy=0;strokeColor=#FFFFFF;" edge="1" parent="1" source="Qr_uqlTXjobZSqawFKb_-8">
          <mxGeometry width="50" height="50" relative="1" as="geometry">
            <mxPoint x="654" y="750" as="sourcePoint" />
            <mxPoint x="660" y="740" as="targetPoint" />
          </mxGeometry>
        </mxCell>
        <mxCell id="Qr_uqlTXjobZSqawFKb_-31" value="" style="endArrow=classic;html=1;rounded=0;exitX=0;exitY=1;exitDx=0;exitDy=0;" edge="1" parent="1">
          <mxGeometry width="50" height="50" relative="1" as="geometry">
            <mxPoint x="33" y="553" as="sourcePoint" />
            <mxPoint x="-20" y="610" as="targetPoint" />
          </mxGeometry>
        </mxCell>
        <mxCell id="Qr_uqlTXjobZSqawFKb_-34" value="" style="endArrow=classic;html=1;rounded=0;exitX=1;exitY=1;exitDx=0;exitDy=0;" edge="1" parent="1">
          <mxGeometry width="50" height="50" relative="1" as="geometry">
            <mxPoint x="560" y="540" as="sourcePoint" />
            <mxPoint x="592" y="577" as="targetPoint" />
          </mxGeometry>
        </mxCell>
        <mxCell id="Qr_uqlTXjobZSqawFKb_-35" value="Pares" style="text;html=1;strokeColor=none;fillColor=none;align=center;verticalAlign=middle;whiteSpace=wrap;rounded=0;" vertex="1" parent="1">
          <mxGeometry x="210" y="240" width="60" height="30" as="geometry" />
        </mxCell>
        <mxCell id="Qr_uqlTXjobZSqawFKb_-36" value="Valores" style="text;html=1;strokeColor=none;fillColor=none;align=center;verticalAlign=middle;whiteSpace=wrap;rounded=0;fontColor=#FFFFFF;" vertex="1" parent="1">
          <mxGeometry x="530" y="240" width="60" height="30" as="geometry" />
        </mxCell>
        <mxCell id="Qr_uqlTXjobZSqawFKb_-37" value="Sí" style="text;html=1;strokeColor=none;fillColor=none;align=center;verticalAlign=middle;whiteSpace=wrap;rounded=0;fontColor=#FFFFFF;" vertex="1" parent="1">
          <mxGeometry x="610" y="300" width="60" height="30" as="geometry" />
        </mxCell>
        <mxCell id="Qr_uqlTXjobZSqawFKb_-38" value="No" style="text;html=1;strokeColor=none;fillColor=none;align=center;verticalAlign=middle;whiteSpace=wrap;rounded=0;fontColor=#FFFFFF;" vertex="1" parent="1">
          <mxGeometry x="730" y="370" width="60" height="30" as="geometry" />
        </mxCell>
        <mxCell id="Qr_uqlTXjobZSqawFKb_-40" value="" style="endArrow=classic;html=1;rounded=0;" edge="1" parent="1" source="Qr_uqlTXjobZSqawFKb_-6">
          <mxGeometry width="50" height="50" relative="1" as="geometry">
            <mxPoint x="693" y="410" as="sourcePoint" />
            <mxPoint x="630" y="410" as="targetPoint" />
          </mxGeometry>
        </mxCell>
        <mxCell id="Qr_uqlTXjobZSqawFKb_-41" value="No" style="text;html=1;strokeColor=none;fillColor=none;align=center;verticalAlign=middle;whiteSpace=wrap;rounded=0;fontColor=#FFFFFF;" vertex="1" parent="1">
          <mxGeometry x="640" y="410" width="60" height="30" as="geometry" />
        </mxCell>
        <mxCell id="Qr_uqlTXjobZSqawFKb_-42" value="Sí" style="text;html=1;strokeColor=none;fillColor=none;align=center;verticalAlign=middle;whiteSpace=wrap;rounded=0;fontColor=#FFFFFF;" vertex="1" parent="1">
          <mxGeometry x="590" y="480" width="60" height="30" as="geometry" />
        </mxCell>
        <mxCell id="Qr_uqlTXjobZSqawFKb_-43" value="Sí" style="text;html=1;strokeColor=none;fillColor=none;align=center;verticalAlign=middle;whiteSpace=wrap;rounded=0;" vertex="1" parent="1">
          <mxGeometry x="490" y="610" width="60" height="30" as="geometry" />
        </mxCell>
        <mxCell id="Qr_uqlTXjobZSqawFKb_-44" value="No" style="text;html=1;strokeColor=none;fillColor=none;align=center;verticalAlign=middle;whiteSpace=wrap;rounded=0;fontColor=#FFFFFF;" vertex="1" parent="1">
          <mxGeometry x="570" y="540" width="60" height="30" as="geometry" />
        </mxCell>
        <mxCell id="Qr_uqlTXjobZSqawFKb_-45" value="Inserción" style="text;html=1;strokeColor=none;fillColor=none;align=center;verticalAlign=middle;whiteSpace=wrap;rounded=0;" vertex="1" parent="1">
          <mxGeometry x="350" y="710" width="60" height="30" as="geometry" />
        </mxCell>
        <mxCell id="Qr_uqlTXjobZSqawFKb_-46" value="Ordenación" style="text;html=1;strokeColor=none;fillColor=none;align=center;verticalAlign=middle;whiteSpace=wrap;rounded=0;" vertex="1" parent="1">
          <mxGeometry x="590" y="710" width="60" height="30" as="geometry" />
        </mxCell>
        <mxCell id="Qr_uqlTXjobZSqawFKb_-47" value="Ordenación" style="text;html=1;strokeColor=none;fillColor=none;align=center;verticalAlign=middle;whiteSpace=wrap;rounded=0;" vertex="1" parent="1">
          <mxGeometry x="-70" y="560" width="60" height="30" as="geometry" />
        </mxCell>
        <mxCell id="Qr_uqlTXjobZSqawFKb_-48" value="Inserción" style="text;html=1;strokeColor=none;fillColor=none;align=center;verticalAlign=middle;whiteSpace=wrap;rounded=0;" vertex="1" parent="1">
          <mxGeometry x="150" y="555" width="60" height="30" as="geometry" />
        </mxCell>
        <mxCell id="Qr_uqlTXjobZSqawFKb_-49" value="No" style="text;html=1;strokeColor=none;fillColor=none;align=center;verticalAlign=middle;whiteSpace=wrap;rounded=0;fontColor=#FFFFFF;" vertex="1" parent="1">
          <mxGeometry x="130" y="310" width="60" height="30" as="geometry" />
        </mxCell>
        <mxCell id="Qr_uqlTXjobZSqawFKb_-50" value="Sí" style="text;html=1;strokeColor=none;fillColor=none;align=center;verticalAlign=middle;whiteSpace=wrap;rounded=0;" vertex="1" parent="1">
          <mxGeometry x="20" y="380" width="60" height="30" as="geometry" />
        </mxCell>
        <mxCell id="Qr_uqlTXjobZSqawFKb_-51" style="edgeStyle=orthogonalEdgeStyle;rounded=0;orthogonalLoop=1;jettySize=auto;html=1;exitX=0.5;exitY=1;exitDx=0;exitDy=0;" edge="1" parent="1">
          <mxGeometry relative="1" as="geometry">
            <mxPoint x="75" y="430" as="targetPoint" />
            <mxPoint x="75" y="350" as="sourcePoint" />
          </mxGeometry>
        </mxCell>
        <mxCell id="Qr_uqlTXjobZSqawFKb_-52" value="" style="endArrow=classic;html=1;rounded=0;exitX=1;exitY=1;exitDx=0;exitDy=0;" edge="1" parent="1">
          <mxGeometry width="50" height="50" relative="1" as="geometry">
            <mxPoint x="118" y="553" as="sourcePoint" />
            <mxPoint x="160" y="600" as="targetPoint" />
          </mxGeometry>
        </mxCell>
        <mxCell id="Qr_uqlTXjobZSqawFKb_-53" value="" style="endArrow=classic;html=1;rounded=0;exitX=0;exitY=1;exitDx=0;exitDy=0;" edge="1" parent="1">
          <mxGeometry width="50" height="50" relative="1" as="geometry">
            <mxPoint x="33" y="553" as="sourcePoint" />
            <mxPoint x="-20" y="610" as="targetPoint" />
          </mxGeometry>
        </mxCell>
        <mxCell id="Qr_uqlTXjobZSqawFKb_-54" style="edgeStyle=orthogonalEdgeStyle;rounded=0;orthogonalLoop=1;jettySize=auto;html=1;exitX=0;exitY=0.5;exitDx=0;exitDy=0;" edge="1" parent="1">
          <mxGeometry relative="1" as="geometry">
            <mxPoint x="170" y="275" as="targetPoint" />
            <mxPoint x="320" y="275" as="sourcePoint" />
          </mxGeometry>
        </mxCell>
        <mxCell id="Qr_uqlTXjobZSqawFKb_-55" style="edgeStyle=orthogonalEdgeStyle;rounded=0;orthogonalLoop=1;jettySize=auto;html=1;exitX=1;exitY=0.5;exitDx=0;exitDy=0;" edge="1" parent="1">
          <mxGeometry relative="1" as="geometry">
            <mxPoint x="640" y="275" as="targetPoint" />
            <mxPoint x="490" y="275" as="sourcePoint" />
          </mxGeometry>
        </mxCell>
        <mxCell id="Qr_uqlTXjobZSqawFKb_-56" style="edgeStyle=orthogonalEdgeStyle;rounded=0;orthogonalLoop=1;jettySize=auto;html=1;exitX=0.5;exitY=1;exitDx=0;exitDy=0;" edge="1" parent="1">
          <mxGeometry relative="1" as="geometry">
            <mxPoint x="75" y="430" as="targetPoint" />
            <mxPoint x="75" y="350" as="sourcePoint" />
          </mxGeometry>
        </mxCell>
        <mxCell id="Qr_uqlTXjobZSqawFKb_-57" value="" style="endArrow=classic;html=1;rounded=0;exitX=1;exitY=1;exitDx=0;exitDy=0;" edge="1" parent="1">
          <mxGeometry width="50" height="50" relative="1" as="geometry">
            <mxPoint x="118" y="553" as="sourcePoint" />
            <mxPoint x="160" y="600" as="targetPoint" />
          </mxGeometry>
        </mxCell>
        <mxCell id="Qr_uqlTXjobZSqawFKb_-58" value="" style="endArrow=classic;html=1;rounded=0;exitX=0;exitY=1;exitDx=0;exitDy=0;" edge="1" parent="1">
          <mxGeometry width="50" height="50" relative="1" as="geometry">
            <mxPoint x="33" y="553" as="sourcePoint" />
            <mxPoint x="-20" y="610" as="targetPoint" />
          </mxGeometry>
        </mxCell>
        <mxCell id="Qr_uqlTXjobZSqawFKb_-59" style="edgeStyle=orthogonalEdgeStyle;rounded=0;orthogonalLoop=1;jettySize=auto;html=1;exitX=0;exitY=0.5;exitDx=0;exitDy=0;" edge="1" parent="1">
          <mxGeometry relative="1" as="geometry">
            <mxPoint x="170" y="275" as="targetPoint" />
            <mxPoint x="320" y="275" as="sourcePoint" />
          </mxGeometry>
        </mxCell>
        <mxCell id="Qr_uqlTXjobZSqawFKb_-60" style="edgeStyle=orthogonalEdgeStyle;rounded=0;orthogonalLoop=1;jettySize=auto;html=1;exitX=1;exitY=0.5;exitDx=0;exitDy=0;" edge="1" parent="1">
          <mxGeometry relative="1" as="geometry">
            <mxPoint x="640" y="275" as="targetPoint" />
            <mxPoint x="490" y="275" as="sourcePoint" />
          </mxGeometry>
        </mxCell>
        <mxCell id="Qr_uqlTXjobZSqawFKb_-61" style="edgeStyle=orthogonalEdgeStyle;rounded=0;orthogonalLoop=1;jettySize=auto;html=1;exitX=0.5;exitY=1;exitDx=0;exitDy=0;" edge="1" parent="1">
          <mxGeometry relative="1" as="geometry">
            <mxPoint x="735" y="430" as="targetPoint" />
            <mxPoint x="735" y="350" as="sourcePoint" />
          </mxGeometry>
        </mxCell>
        <mxCell id="Qr_uqlTXjobZSqawFKb_-62" value="" style="endArrow=classic;html=1;rounded=0;" edge="1" parent="1">
          <mxGeometry width="50" height="50" relative="1" as="geometry">
            <mxPoint x="694" y="474" as="sourcePoint" />
            <mxPoint x="630" y="410" as="targetPoint" />
          </mxGeometry>
        </mxCell>
        <mxCell id="Qr_uqlTXjobZSqawFKb_-63" value="" style="endArrow=classic;html=1;rounded=0;exitX=0;exitY=1;exitDx=0;exitDy=0;" edge="1" parent="1">
          <mxGeometry width="50" height="50" relative="1" as="geometry">
            <mxPoint x="693" y="313" as="sourcePoint" />
            <mxPoint x="630" y="350" as="targetPoint" />
          </mxGeometry>
        </mxCell>
        <mxCell id="Qr_uqlTXjobZSqawFKb_-64" style="edgeStyle=orthogonalEdgeStyle;rounded=0;orthogonalLoop=1;jettySize=auto;html=1;exitX=0;exitY=0.5;exitDx=0;exitDy=0;" edge="1" parent="1">
          <mxGeometry relative="1" as="geometry">
            <mxPoint x="590" y="515" as="targetPoint" />
            <mxPoint x="650" y="515" as="sourcePoint" />
          </mxGeometry>
        </mxCell>
        <mxCell id="Qr_uqlTXjobZSqawFKb_-65" style="edgeStyle=orthogonalEdgeStyle;rounded=0;orthogonalLoop=1;jettySize=auto;html=1;exitX=0.5;exitY=1;exitDx=0;exitDy=0;strokeColor=#FF00FF;" edge="1" parent="1">
          <mxGeometry relative="1" as="geometry">
            <mxPoint x="75" y="430" as="targetPoint" />
            <mxPoint x="75" y="350" as="sourcePoint" />
          </mxGeometry>
        </mxCell>
        <mxCell id="Qr_uqlTXjobZSqawFKb_-66" value="" style="endArrow=classic;html=1;rounded=0;exitX=1;exitY=1;exitDx=0;exitDy=0;strokeColor=#FFFFFF;" edge="1" parent="1">
          <mxGeometry width="50" height="50" relative="1" as="geometry">
            <mxPoint x="118" y="553" as="sourcePoint" />
            <mxPoint x="160" y="600" as="targetPoint" />
          </mxGeometry>
        </mxCell>
        <mxCell id="Qr_uqlTXjobZSqawFKb_-67" value="" style="endArrow=classic;html=1;rounded=0;exitX=0;exitY=1;exitDx=0;exitDy=0;strokeColor=#FFFFFF;" edge="1" parent="1">
          <mxGeometry width="50" height="50" relative="1" as="geometry">
            <mxPoint x="33" y="553" as="sourcePoint" />
            <mxPoint x="-20" y="610" as="targetPoint" />
          </mxGeometry>
        </mxCell>
        <mxCell id="Qr_uqlTXjobZSqawFKb_-68" style="edgeStyle=orthogonalEdgeStyle;rounded=0;orthogonalLoop=1;jettySize=auto;html=1;exitX=0;exitY=0.5;exitDx=0;exitDy=0;" edge="1" parent="1">
          <mxGeometry relative="1" as="geometry">
            <mxPoint x="170" y="275" as="targetPoint" />
            <mxPoint x="320" y="275" as="sourcePoint" />
          </mxGeometry>
        </mxCell>
        <mxCell id="Qr_uqlTXjobZSqawFKb_-69" style="edgeStyle=orthogonalEdgeStyle;rounded=0;orthogonalLoop=1;jettySize=auto;html=1;exitX=1;exitY=0.5;exitDx=0;exitDy=0;" edge="1" parent="1">
          <mxGeometry relative="1" as="geometry">
            <mxPoint x="640" y="275" as="targetPoint" />
            <mxPoint x="490" y="275" as="sourcePoint" />
          </mxGeometry>
        </mxCell>
        <mxCell id="Qr_uqlTXjobZSqawFKb_-70" style="edgeStyle=orthogonalEdgeStyle;rounded=0;orthogonalLoop=1;jettySize=auto;html=1;exitX=0.5;exitY=1;exitDx=0;exitDy=0;strokeColor=#4C0099;" edge="1" parent="1">
          <mxGeometry relative="1" as="geometry">
            <mxPoint x="735" y="430" as="targetPoint" />
            <mxPoint x="735" y="350" as="sourcePoint" />
          </mxGeometry>
        </mxCell>
        <mxCell id="Qr_uqlTXjobZSqawFKb_-71" value="" style="endArrow=classic;html=1;rounded=0;strokeColor=#4C0099;" edge="1" parent="1">
          <mxGeometry width="50" height="50" relative="1" as="geometry">
            <mxPoint x="694" y="474" as="sourcePoint" />
            <mxPoint x="630" y="410" as="targetPoint" />
          </mxGeometry>
        </mxCell>
        <mxCell id="Qr_uqlTXjobZSqawFKb_-72" value="" style="endArrow=classic;html=1;rounded=0;exitX=0;exitY=1;exitDx=0;exitDy=0;strokeColor=#FF00FF;" edge="1" parent="1">
          <mxGeometry width="50" height="50" relative="1" as="geometry">
            <mxPoint x="693" y="313" as="sourcePoint" />
            <mxPoint x="630" y="350" as="targetPoint" />
          </mxGeometry>
        </mxCell>
        <mxCell id="Qr_uqlTXjobZSqawFKb_-73" style="edgeStyle=orthogonalEdgeStyle;rounded=0;orthogonalLoop=1;jettySize=auto;html=1;exitX=0;exitY=0.5;exitDx=0;exitDy=0;strokeColor=#FF00FF;" edge="1" parent="1">
          <mxGeometry relative="1" as="geometry">
            <mxPoint x="590" y="515" as="targetPoint" />
            <mxPoint x="650" y="515" as="sourcePoint" />
          </mxGeometry>
        </mxCell>
        <mxCell id="Qr_uqlTXjobZSqawFKb_-74" style="edgeStyle=orthogonalEdgeStyle;rounded=0;orthogonalLoop=1;jettySize=auto;html=1;exitX=0.5;exitY=1;exitDx=0;exitDy=0;strokeColor=#FFFFFF;" edge="1" parent="1">
          <mxGeometry relative="1" as="geometry">
            <mxPoint x="499" y="660" as="targetPoint" />
            <mxPoint x="499" y="590" as="sourcePoint" />
          </mxGeometry>
        </mxCell>
        <mxCell id="Qr_uqlTXjobZSqawFKb_-75" value="" style="endArrow=classic;html=1;rounded=0;exitX=1;exitY=1;exitDx=0;exitDy=0;strokeColor=#FFFFFF;" edge="1" parent="1">
          <mxGeometry width="50" height="50" relative="1" as="geometry">
            <mxPoint x="560" y="540" as="sourcePoint" />
            <mxPoint x="592" y="577" as="targetPoint" />
          </mxGeometry>
        </mxCell>
        <mxCell id="Qr_uqlTXjobZSqawFKb_-76" value="Ordenación" style="text;html=1;strokeColor=none;fillColor=none;align=center;verticalAlign=middle;whiteSpace=wrap;rounded=0;" vertex="1" parent="1">
          <mxGeometry x="590" y="710" width="60" height="30" as="geometry" />
        </mxCell>
        <mxCell id="Qr_uqlTXjobZSqawFKb_-77" style="edgeStyle=orthogonalEdgeStyle;rounded=0;orthogonalLoop=1;jettySize=auto;html=1;exitX=0.5;exitY=1;exitDx=0;exitDy=0;strokeColor=#FFFFFF;" edge="1" parent="1">
          <mxGeometry relative="1" as="geometry">
            <mxPoint x="74.66" y="429.66" as="targetPoint" />
            <mxPoint x="74.66" y="349.66" as="sourcePoint" />
          </mxGeometry>
        </mxCell>
        <mxCell id="Qr_uqlTXjobZSqawFKb_-78" value="" style="endArrow=classic;html=1;rounded=0;exitX=1;exitY=1;exitDx=0;exitDy=0;strokeColor=#FFFFFF;" edge="1" parent="1">
          <mxGeometry width="50" height="50" relative="1" as="geometry">
            <mxPoint x="117.66" y="312.66" as="sourcePoint" />
            <mxPoint x="149.66" y="349.66" as="targetPoint" />
          </mxGeometry>
        </mxCell>
        <mxCell id="Qr_uqlTXjobZSqawFKb_-79" style="edgeStyle=orthogonalEdgeStyle;rounded=0;orthogonalLoop=1;jettySize=auto;html=1;exitX=0;exitY=0.5;exitDx=0;exitDy=0;strokeColor=#FFFFFF;" edge="1" parent="1">
          <mxGeometry relative="1" as="geometry">
            <mxPoint x="169.66" y="274.66" as="targetPoint" />
            <mxPoint x="319.66" y="274.66" as="sourcePoint" />
          </mxGeometry>
        </mxCell>
        <mxCell id="Qr_uqlTXjobZSqawFKb_-80" style="edgeStyle=orthogonalEdgeStyle;rounded=0;orthogonalLoop=1;jettySize=auto;html=1;exitX=1;exitY=0.5;exitDx=0;exitDy=0;strokeColor=#FFFFFF;" edge="1" parent="1">
          <mxGeometry relative="1" as="geometry">
            <mxPoint x="639.66" y="274.66" as="targetPoint" />
            <mxPoint x="489.66" y="274.66" as="sourcePoint" />
          </mxGeometry>
        </mxCell>
        <mxCell id="Qr_uqlTXjobZSqawFKb_-81" style="edgeStyle=orthogonalEdgeStyle;rounded=0;orthogonalLoop=1;jettySize=auto;html=1;exitX=0.5;exitY=1;exitDx=0;exitDy=0;strokeColor=#FFFFFF;" edge="1" parent="1">
          <mxGeometry relative="1" as="geometry">
            <mxPoint x="734.66" y="429.66" as="targetPoint" />
            <mxPoint x="734.66" y="349.66" as="sourcePoint" />
          </mxGeometry>
        </mxCell>
        <mxCell id="Qr_uqlTXjobZSqawFKb_-82" value="" style="endArrow=classic;html=1;rounded=0;exitX=0;exitY=1;exitDx=0;exitDy=0;strokeColor=#FFFFFF;" edge="1" parent="1">
          <mxGeometry width="50" height="50" relative="1" as="geometry">
            <mxPoint x="692.66" y="312.66" as="sourcePoint" />
            <mxPoint x="629.66" y="349.66" as="targetPoint" />
          </mxGeometry>
        </mxCell>
        <mxCell id="Qr_uqlTXjobZSqawFKb_-83" value="" style="endArrow=classic;html=1;rounded=0;strokeColor=#FFFFFF;" edge="1" parent="1">
          <mxGeometry width="50" height="50" relative="1" as="geometry">
            <mxPoint x="693.66" y="473.66" as="sourcePoint" />
            <mxPoint x="629.66" y="409.66" as="targetPoint" />
          </mxGeometry>
        </mxCell>
        <mxCell id="Qr_uqlTXjobZSqawFKb_-84" style="edgeStyle=orthogonalEdgeStyle;rounded=0;orthogonalLoop=1;jettySize=auto;html=1;exitX=0;exitY=0.5;exitDx=0;exitDy=0;strokeColor=#FFFFFF;" edge="1" parent="1">
          <mxGeometry relative="1" as="geometry">
            <mxPoint x="589.66" y="514.66" as="targetPoint" />
            <mxPoint x="649.66" y="514.66" as="sourcePoint" />
          </mxGeometry>
        </mxCell>
        <mxCell id="Qr_uqlTXjobZSqawFKb_-85" value="HASHMAP" style="rounded=1;whiteSpace=wrap;html=1;strokeColor=#00CCCC;strokeWidth=2;fillColor=none;" vertex="1" parent="1">
          <mxGeometry x="140" y="360" width="100" height="40" as="geometry" />
        </mxCell>
        <mxCell id="Qr_uqlTXjobZSqawFKb_-86" value="No" style="text;html=1;strokeColor=none;fillColor=none;align=center;verticalAlign=middle;whiteSpace=wrap;rounded=0;fontColor=#FFFFFF;" vertex="1" parent="1">
          <mxGeometry x="130" y="310" width="60" height="30" as="geometry" />
        </mxCell>
        <mxCell id="Qr_uqlTXjobZSqawFKb_-87" value="HASHMAP" style="rounded=1;whiteSpace=wrap;html=1;strokeColor=#00CCCC;strokeWidth=2;fillColor=none;" vertex="1" parent="1">
          <mxGeometry x="140" y="360" width="100" height="40" as="geometry" />
        </mxCell>
        <mxCell id="Qr_uqlTXjobZSqawFKb_-88" value="No" style="text;html=1;strokeColor=none;fillColor=none;align=center;verticalAlign=middle;whiteSpace=wrap;rounded=0;fontColor=#FFFFFF;" vertex="1" parent="1">
          <mxGeometry x="130" y="310" width="60" height="30" as="geometry" />
        </mxCell>
        <mxCell id="Qr_uqlTXjobZSqawFKb_-89" value="Pares" style="text;html=1;strokeColor=none;fillColor=none;align=center;verticalAlign=middle;whiteSpace=wrap;rounded=0;" vertex="1" parent="1">
          <mxGeometry x="210" y="240" width="60" height="30" as="geometry" />
        </mxCell>
        <mxCell id="Qr_uqlTXjobZSqawFKb_-90" value="Sí" style="text;html=1;strokeColor=none;fillColor=none;align=center;verticalAlign=middle;whiteSpace=wrap;rounded=0;" vertex="1" parent="1">
          <mxGeometry x="20" y="380" width="60" height="30" as="geometry" />
        </mxCell>
        <mxCell id="Qr_uqlTXjobZSqawFKb_-91" value="¿ORDEN DE INSERCIÓN U ORDEN DE CLAVES?" style="rhombus;whiteSpace=wrap;html=1;fillColor=none;fontColor=#ffffff;strokeColor=#99FF33;strokeWidth=2;" vertex="1" parent="1">
          <mxGeometry x="-10" y="440" width="170" height="150" as="geometry" />
        </mxCell>
        <mxCell id="Qr_uqlTXjobZSqawFKb_-92" value="Inserción" style="text;html=1;strokeColor=none;fillColor=none;align=center;verticalAlign=middle;whiteSpace=wrap;rounded=0;" vertex="1" parent="1">
          <mxGeometry x="150" y="555" width="60" height="30" as="geometry" />
        </mxCell>
        <mxCell id="Qr_uqlTXjobZSqawFKb_-93" value="Ordenación" style="text;html=1;strokeColor=none;fillColor=none;align=center;verticalAlign=middle;whiteSpace=wrap;rounded=0;" vertex="1" parent="1">
          <mxGeometry x="-70" y="560" width="60" height="30" as="geometry" />
        </mxCell>
        <mxCell id="Qr_uqlTXjobZSqawFKb_-94" value="HASHMAP" style="rounded=1;whiteSpace=wrap;html=1;strokeColor=#00CCCC;strokeWidth=2;fillColor=none;" vertex="1" parent="1">
          <mxGeometry x="140" y="360" width="100" height="40" as="geometry" />
        </mxCell>
        <mxCell id="Qr_uqlTXjobZSqawFKb_-95" value="No" style="text;html=1;strokeColor=none;fillColor=none;align=center;verticalAlign=middle;whiteSpace=wrap;rounded=0;fontColor=#FFFFFF;" vertex="1" parent="1">
          <mxGeometry x="130" y="310" width="60" height="30" as="geometry" />
        </mxCell>
        <mxCell id="Qr_uqlTXjobZSqawFKb_-96" value="Pares" style="text;html=1;strokeColor=none;fillColor=none;align=center;verticalAlign=middle;whiteSpace=wrap;rounded=0;" vertex="1" parent="1">
          <mxGeometry x="210" y="240" width="60" height="30" as="geometry" />
        </mxCell>
        <mxCell id="Qr_uqlTXjobZSqawFKb_-97" value="Sí" style="text;html=1;strokeColor=none;fillColor=none;align=center;verticalAlign=middle;whiteSpace=wrap;rounded=0;" vertex="1" parent="1">
          <mxGeometry x="20" y="380" width="60" height="30" as="geometry" />
        </mxCell>
        <mxCell id="Qr_uqlTXjobZSqawFKb_-98" value="¿ORDEN DE INSERCIÓN U ORDEN DE CLAVES?" style="rhombus;whiteSpace=wrap;html=1;fillColor=none;fontColor=#ffffff;strokeColor=#99FF33;strokeWidth=2;" vertex="1" parent="1">
          <mxGeometry x="-10" y="440" width="170" height="150" as="geometry" />
        </mxCell>
        <mxCell id="Qr_uqlTXjobZSqawFKb_-99" value="Inserción" style="text;html=1;strokeColor=none;fillColor=none;align=center;verticalAlign=middle;whiteSpace=wrap;rounded=0;" vertex="1" parent="1">
          <mxGeometry x="150" y="555" width="60" height="30" as="geometry" />
        </mxCell>
        <mxCell id="Qr_uqlTXjobZSqawFKb_-100" value="Ordenación" style="text;html=1;strokeColor=none;fillColor=none;align=center;verticalAlign=middle;whiteSpace=wrap;rounded=0;" vertex="1" parent="1">
          <mxGeometry x="-70" y="560" width="60" height="30" as="geometry" />
        </mxCell>
        <mxCell id="Qr_uqlTXjobZSqawFKb_-101" value="LINKEDHASHMAP" style="rounded=1;whiteSpace=wrap;html=1;strokeColor=#00CCCC;strokeWidth=2;fillColor=none;" vertex="1" parent="1">
          <mxGeometry x="130" y="615" width="120" height="50" as="geometry" />
        </mxCell>
        <mxCell id="Qr_uqlTXjobZSqawFKb_-102" value="HASHMAP" style="rounded=1;whiteSpace=wrap;html=1;strokeColor=#00CCCC;strokeWidth=2;fillColor=none;fontColor=#FFFFFF;" vertex="1" parent="1">
          <mxGeometry x="140" y="360" width="100" height="40" as="geometry" />
        </mxCell>
        <mxCell id="Qr_uqlTXjobZSqawFKb_-103" value="No" style="text;html=1;strokeColor=none;fillColor=none;align=center;verticalAlign=middle;whiteSpace=wrap;rounded=0;fontColor=#FFFFFF;" vertex="1" parent="1">
          <mxGeometry x="130" y="310" width="60" height="30" as="geometry" />
        </mxCell>
        <mxCell id="Qr_uqlTXjobZSqawFKb_-104" value="Pares" style="text;html=1;strokeColor=none;fillColor=none;align=center;verticalAlign=middle;whiteSpace=wrap;rounded=0;fontColor=#FFFFFF;" vertex="1" parent="1">
          <mxGeometry x="210" y="240" width="60" height="30" as="geometry" />
        </mxCell>
        <mxCell id="Qr_uqlTXjobZSqawFKb_-105" value="Sí" style="text;html=1;strokeColor=none;fillColor=none;align=center;verticalAlign=middle;whiteSpace=wrap;rounded=0;fontColor=#FFFFFF;" vertex="1" parent="1">
          <mxGeometry x="20" y="380" width="60" height="30" as="geometry" />
        </mxCell>
        <mxCell id="Qr_uqlTXjobZSqawFKb_-106" value="¿ORDEN DE INSERCIÓN U ORDEN DE CLAVES?" style="rhombus;whiteSpace=wrap;html=1;fillColor=none;fontColor=#FFFFFF;strokeColor=#99FF33;strokeWidth=2;" vertex="1" parent="1">
          <mxGeometry x="-10" y="440" width="170" height="150" as="geometry" />
        </mxCell>
        <mxCell id="Qr_uqlTXjobZSqawFKb_-107" value="Inserción" style="text;html=1;strokeColor=none;fillColor=none;align=center;verticalAlign=middle;whiteSpace=wrap;rounded=0;fontColor=#FFFFFF;" vertex="1" parent="1">
          <mxGeometry x="150" y="555" width="60" height="30" as="geometry" />
        </mxCell>
        <mxCell id="Qr_uqlTXjobZSqawFKb_-108" value="Ordenación" style="text;html=1;strokeColor=none;fillColor=none;align=center;verticalAlign=middle;whiteSpace=wrap;rounded=0;fontColor=#FFFFFF;" vertex="1" parent="1">
          <mxGeometry x="-70" y="560" width="60" height="30" as="geometry" />
        </mxCell>
        <mxCell id="Qr_uqlTXjobZSqawFKb_-109" value="LINKEDHASHMAP" style="rounded=1;whiteSpace=wrap;html=1;strokeColor=#00CCCC;strokeWidth=2;fillColor=none;fontColor=#FFFFFF;" vertex="1" parent="1">
          <mxGeometry x="130" y="615" width="120" height="50" as="geometry" />
        </mxCell>
        <mxCell id="Qr_uqlTXjobZSqawFKb_-110" value="Inserción" style="text;html=1;strokeColor=none;fillColor=none;align=center;verticalAlign=middle;whiteSpace=wrap;rounded=0;fontColor=#FFFFFF;" vertex="1" parent="1">
          <mxGeometry x="350" y="710" width="60" height="30" as="geometry" />
        </mxCell>
        <mxCell id="Qr_uqlTXjobZSqawFKb_-111" value="¿ORDEN DE INSERCIÓN U ORDEN DE ELEMENTO?" style="rhombus;whiteSpace=wrap;html=1;fillColor=none;strokeColor=#99FF33;strokeWidth=2;fontColor=#FFFFFF;" vertex="1" parent="1">
          <mxGeometry x="414" y="665" width="170" height="150" as="geometry" />
        </mxCell>
        <mxCell id="Qr_uqlTXjobZSqawFKb_-112" value="Ordenación" style="text;html=1;strokeColor=none;fillColor=none;align=center;verticalAlign=middle;whiteSpace=wrap;rounded=0;fontColor=#FFFFFF;" vertex="1" parent="1">
          <mxGeometry x="590" y="710" width="60" height="30" as="geometry" />
        </mxCell>
        <mxCell id="Qr_uqlTXjobZSqawFKb_-113" value="TREESET" style="rounded=1;whiteSpace=wrap;html=1;strokeColor=#00CCCC;strokeWidth=2;fillColor=none;fontColor=#FFFFFF;" vertex="1" parent="1">
          <mxGeometry x="680" y="720" width="90" height="40" as="geometry" />
        </mxCell>
        <mxCell id="Qr_uqlTXjobZSqawFKb_-114" value="HASHSET" style="rounded=1;whiteSpace=wrap;html=1;strokeColor=#00CCCC;strokeWidth=2;fillColor=none;fontColor=#FFFFFF;" vertex="1" parent="1">
          <mxGeometry x="570" y="585" width="90" height="40" as="geometry" />
        </mxCell>
        <mxCell id="Qr_uqlTXjobZSqawFKb_-115" value="Sí" style="text;html=1;strokeColor=none;fillColor=none;align=center;verticalAlign=middle;whiteSpace=wrap;rounded=0;fontColor=#FFFFFF;" vertex="1" parent="1">
          <mxGeometry x="490" y="610" width="60" height="30" as="geometry" />
        </mxCell>
        <mxCell id="Qr_uqlTXjobZSqawFKb_-116" value="No" style="text;html=1;strokeColor=none;fillColor=none;align=center;verticalAlign=middle;whiteSpace=wrap;rounded=0;fontColor=#FFFFFF;" vertex="1" parent="1">
          <mxGeometry x="570" y="540" width="60" height="30" as="geometry" />
        </mxCell>
      </root>
    </mxGraphModel>
  </diagram>
</mxfile>
